<svg id="svg-logo-max" data-name="svg-logo-max" xmlns="http://www.w3.org/2000/svg" viewBox="0 0 95.6 35">
  <g id="svg-logo-min-body" data-name="svg-logo-min-body">
    <path class="letter-r svg-text" d="m10.5,17.45h-6.03l-.3.3v4.76l.3.3h6.04c1.79,0,2.98-.59,2.98-2.68s-1.19-2.68-2.98-2.68h0,0Zm2.69,8.63v.3l3.87,5.06v2.97l-.3.3h-1.79l-.59-.3-5.96-7.73-.59-.3h-3.36l-.3.3v7.73l-.3.3H.3l-.3-.3V14.18l.3-.29h10.21c4.17,0,7.15,2.08,7.15,6.24,0,3.27-2.09,5.35-4.47,5.95h0Z"></path>
    <path class="letter-u svg-text" d="m36.04,26.67c0,5.35-2.98,8.33-8.34,8.33s-8.34-2.97-8.34-8.33v-12.49l.3-.3h3.58l.3.3v12.49c0,2.98,1.19,4.76,4.17,4.76s4.17-1.78,4.17-4.76v-12.49l.3-.3h3.58l.3.3v12.49Z"></path>
    <path class="letter-s svg-text" d="m46.09,35c-5.96,0-8.64-2.97-8.64-6.84l.3-.3h3.57l.3.3c0,2.08,1.19,3.27,4.77,3.27,2.68,0,4.17-.89,4.17-2.68,0-2.08-1.19-2.68-5.36-3.27-4.17-.59-7.45-2.08-7.45-6.25,0-2.98,2.38-5.65,8.04-5.65s8.04,2.68,8.04,6.25l-.3.3h-3.57l-.3-.29c0-1.78-.89-2.68-4.17-2.68-2.68,0-3.58.89-3.58,2.08,0,1.78,1.19,2.38,5.36,2.97,4.17.59,7.45,2.38,7.45,6.54,0,3.27-2.38,6.24-8.64,6.24Z"></path>
    <path class="letter-h svg-text" d="m73.12,34.7h-3.58l-.3-.3v-8.33l-.3-.29h-8.04l-.3.3v8.32l-.3.3h-3.58l-.29-.3V14.18l.3-.3h3.58l.3.3v7.73l.3.3h8.04l.3-.3v-7.73l.3-.3h3.58l.3.3v20.23l-.3.3Z"></path>
    <path class="svg-brush" d="m93.66,17.6l-6.08,9.57-.14-.14,4.76-8.43-.07-.07-3.06,4.52-.14-.14,4.32-7.38-.07-.07-3.9,5.73-.14-.14,6.45-10.93-.07-.07-3.83,5.57-.14-.14,2.13-3.67-.07-.07-.7.99-.14-.14,2.35-4.62-.07-.07-1.1,1.5-.14-.14,1.79-3.22-.07-.07-2.53,3.88-3,4.47-.14-.14,4.15-6.82-.07-.07-.32.19s-.04-.07-.06-.09l1.46-2.71-.07-.07-.36.47-.14-.14.75-1.47-.07-.07-1.49,2.27-.14-.14.7-1.4-.07-.07-2.77,3.97-.14-.14s1.96-3.4,2.62-4.54c.55-.95,1.78-3.26,1.78-3.26l-.07-.07-8.49,12.57-.14-.14.8-1.64-.07-.07-4.74,7.5-.14-.14,5.59-9.98-.07-.07-4.94,7.21-.14-.14,1.01-2.08-.07-.07-7.93,11.96v9.43l.35.35h9.44l4.54-8.33-.07-.07-3.02,4.74-.14-.14,2.39-4.29-.07-.07-.74.92-.14-.14,1.64-2.86-.07-.07-.61.76-.14-.14,4.16-7.33-.06-.07h0Z"></path>
  </g>
</svg>
