<svg width="44" height="22" viewBox="0 0 44 22" fill="none" xmlns="http://www.w3.org/2000/svg">
  <path d="M7.07031 0.752319L7.01172 3.23669L5.26562 3.30701L4.82031 8.86169L2.34766 8.9906L2.35938 3.43591L0.613281 3.52966L0.683594 0.764038L7.07031 0.752319Z" fill="#E9F2E0"/>
  <path d="M14.6198 3.48279C14.6198 3.78748 14.5924 4.06482 14.5377 4.31482C14.487 4.56091 14.4049 4.78748 14.2916 4.99451C14.1784 5.20154 14.0319 5.39294 13.8522 5.56873C13.6725 5.74451 13.4557 5.91248 13.2018 6.07263L14.5963 8.55701L11.9596 9.07263L11.0573 6.57654L10.3307 6.59998L10.2252 9.03748H7.7057C7.72523 8.14685 7.74281 7.26013 7.75844 6.37732C7.77797 5.49451 7.79945 4.60779 7.82289 3.71716C7.8307 3.26794 7.83852 2.82263 7.84633 2.38123C7.85414 1.93982 7.86977 1.49451 7.8932 1.04529C8.16664 0.943726 8.43617 0.859741 8.7018 0.793335C8.96742 0.726929 9.23305 0.676147 9.49867 0.640991C9.7682 0.601929 10.0397 0.576538 10.3131 0.564819C10.5905 0.549194 10.8737 0.541382 11.1627 0.541382C11.608 0.541382 12.0377 0.603882 12.4518 0.728882C12.8698 0.849976 13.2389 1.03357 13.5592 1.27966C13.8795 1.52576 14.1354 1.8324 14.3268 2.19958C14.5221 2.56677 14.6198 2.99451 14.6198 3.48279ZM11.9948 3.67029C11.9948 3.50623 11.9713 3.35583 11.9245 3.21912C11.8815 3.0824 11.8151 2.96521 11.7252 2.86755C11.6393 2.76599 11.5299 2.68787 11.3971 2.63318C11.2682 2.57458 11.1159 2.54529 10.9401 2.54529C10.862 2.54529 10.7858 2.55115 10.7116 2.56287C10.6373 2.57068 10.5651 2.58435 10.4948 2.60388L10.401 4.78357H10.5416C10.7096 4.78357 10.8795 4.76208 11.0514 4.71912C11.2272 4.67615 11.3834 4.60974 11.5202 4.5199C11.6608 4.43005 11.7741 4.31482 11.86 4.17419C11.9498 4.03357 11.9948 3.8656 11.9948 3.67029Z" fill="#E9F2E0"/>
  <path d="M22.3743 0.881226C22.1985 2.25623 22.0481 3.62537 21.9231 4.98865C21.7981 6.34802 21.679 7.71716 21.5657 9.09607L19.1634 9.27185L19.2688 8.36951C19.1907 8.45935 19.0989 8.53748 18.9934 8.60388C18.8919 8.67029 18.7825 8.72498 18.6653 8.76794C18.5481 8.80701 18.427 8.8363 18.302 8.85583C18.177 8.87146 18.0579 8.87732 17.9446 8.87341C17.679 8.86951 17.429 8.81873 17.1946 8.72107C16.9602 8.61951 16.7454 8.48669 16.5501 8.32263C16.3548 8.15466 16.179 7.9613 16.0227 7.74255C15.8665 7.5199 15.7337 7.28748 15.6243 7.04529C15.5188 6.79919 15.4368 6.54919 15.3782 6.29529C15.3235 6.04138 15.2962 5.79529 15.2962 5.55701C15.2962 5.20544 15.302 4.84216 15.3138 4.46716C15.3294 4.08826 15.3548 3.70935 15.3899 3.33044C15.4251 2.95154 15.47 2.57654 15.5247 2.20544C15.5833 1.83435 15.6555 1.47888 15.7415 1.13904C16.218 1.16248 16.6966 1.18396 17.177 1.20349C17.6575 1.22302 18.136 1.22888 18.6126 1.22107C18.5227 1.56091 18.4329 1.90271 18.343 2.24646C18.2571 2.5863 18.179 2.93005 18.1087 3.27771C18.0384 3.62146 17.9817 3.96716 17.9388 4.31482C17.8958 4.66248 17.8743 5.01404 17.8743 5.36951C17.8743 5.45154 17.8782 5.56873 17.886 5.72107C17.8938 5.87341 17.9134 6.0238 17.9446 6.17224C17.9798 6.32068 18.0305 6.45154 18.097 6.56482C18.1673 6.67419 18.2649 6.72888 18.3899 6.72888C18.5384 6.72888 18.6712 6.66638 18.7884 6.54138C18.9055 6.41248 19.0091 6.2406 19.0989 6.02576C19.1888 5.81091 19.2649 5.56287 19.3274 5.28162C19.3938 5.00037 19.4485 4.7074 19.4915 4.40271C19.5384 4.09412 19.5755 3.78357 19.6028 3.47107C19.6302 3.15857 19.6497 2.8656 19.6614 2.59216C19.677 2.31482 19.6868 2.06677 19.6907 1.84802C19.6985 1.62927 19.7024 1.45935 19.7024 1.33826C19.7024 1.26013 19.7005 1.18396 19.6966 1.10974C19.6927 1.03552 19.6868 0.959351 19.679 0.881226C19.9329 0.889038 20.1848 0.894897 20.4348 0.898804C20.6848 0.90271 20.9368 0.904663 21.1907 0.904663C21.386 0.904663 21.5813 0.904663 21.7766 0.904663C21.9759 0.900757 22.1751 0.892944 22.3743 0.881226Z" fill="#E9F2E0"/>
  <path d="M29.0331 6.13123C29.0331 6.66638 28.9394 7.12927 28.7519 7.5199C28.5683 7.90662 28.3144 8.22693 27.9902 8.48083C27.6698 8.73083 27.2929 8.91638 26.8593 9.03748C26.4296 9.15466 25.9667 9.21326 25.4706 9.21326C25.2792 9.21326 25.0683 9.18787 24.8378 9.13708C24.6112 9.0863 24.3808 9.0238 24.1464 8.94958C23.912 8.87146 23.6855 8.78943 23.4667 8.70349C23.2519 8.61365 23.0605 8.52966 22.8925 8.45154L23.1503 6.15466C23.4823 6.35388 23.8495 6.50623 24.2519 6.61169C24.6581 6.71326 25.0566 6.76404 25.4472 6.76404C25.5214 6.76404 25.6112 6.76208 25.7167 6.75818C25.8222 6.75037 25.9218 6.73279 26.0155 6.70544C26.1132 6.67419 26.1952 6.62927 26.2616 6.57068C26.328 6.51208 26.3612 6.4281 26.3612 6.31873C26.3612 6.24451 26.3378 6.18201 26.2909 6.13123C26.2441 6.07654 26.1835 6.03357 26.1093 6.00232C26.0351 5.96716 25.9511 5.94177 25.8573 5.92615C25.7636 5.90662 25.6718 5.89294 25.582 5.88513C25.4921 5.87732 25.4081 5.87341 25.33 5.87341C25.2519 5.87341 25.1894 5.87341 25.1425 5.87341C24.8066 5.87341 24.4999 5.82068 24.2226 5.71521C23.9491 5.60974 23.7128 5.4613 23.5136 5.2699C23.3183 5.07458 23.1659 4.84021 23.0566 4.56677C22.9472 4.28943 22.8925 3.98279 22.8925 3.64685C22.8925 3.18591 22.9843 2.7738 23.1679 2.41052C23.3554 2.04333 23.6034 1.73279 23.912 1.47888C24.2245 1.22107 24.582 1.0238 24.9843 0.887085C25.3866 0.750366 25.8027 0.682007 26.2323 0.682007C26.4237 0.682007 26.621 0.689819 26.8241 0.705444C27.0273 0.717163 27.2284 0.740601 27.4277 0.775757C27.6308 0.810913 27.828 0.855835 28.0195 0.910522C28.2109 0.96521 28.3925 1.03357 28.5644 1.1156L28.3417 3.49451C28.0761 3.40466 27.7968 3.33044 27.5038 3.27185C27.2148 3.20935 26.9316 3.1781 26.6542 3.1781C26.6034 3.1781 26.537 3.18005 26.455 3.18396C26.3769 3.18396 26.2929 3.18982 26.203 3.20154C26.1171 3.20935 26.0292 3.22302 25.9394 3.24255C25.8495 3.26208 25.7695 3.28943 25.6991 3.32458C25.6288 3.35583 25.5722 3.3988 25.5292 3.45349C25.4862 3.50818 25.4667 3.57263 25.4706 3.64685C25.4745 3.73279 25.5058 3.79919 25.5644 3.84607C25.6269 3.89294 25.705 3.9281 25.7987 3.95154C25.8964 3.97107 26.0019 3.98083 26.1152 3.98083C26.2323 3.98083 26.3476 3.97888 26.4609 3.97498C26.5741 3.96716 26.6796 3.9613 26.7773 3.9574C26.8749 3.94958 26.955 3.94763 27.0175 3.95154C27.33 3.97107 27.6112 4.03748 27.8612 4.15076C28.1112 4.26404 28.3222 4.41443 28.4941 4.60193C28.6698 4.78943 28.8027 5.01404 28.8925 5.27576C28.9862 5.53357 29.0331 5.81873 29.0331 6.13123Z" fill="#E9F2E0"/>
  <path d="M35.8384 0.869507L35.7798 3.35388L34.0338 3.42419L33.8228 8.86169L31.3502 8.9906L31.1275 3.5531L29.3814 3.64685L29.4517 0.881226L35.8384 0.869507Z" fill="#E9F2E0"/>
  <path d="M43.757 1.19763L41.0031 5.69763L41.0852 9.01404H38.0734L38.1437 5.72107L35.9992 1.37341L38.9875 0.998413L39.925 3.52966L40.9445 0.998413L43.757 1.19763Z" fill="#E9F2E0"/>
  <path d="M11.9242 15.4945C11.9242 15.8734 11.8676 16.2094 11.7543 16.5023C11.641 16.7953 11.4848 17.0511 11.2855 17.2699C11.0902 17.4886 10.8598 17.6742 10.5941 17.8265C10.3285 17.9789 10.0434 18.1039 9.73867 18.2015C9.43789 18.2953 9.12539 18.3656 8.80117 18.4125C8.47695 18.4554 8.15859 18.4789 7.84609 18.4828V21.2133H5.11562C5.11562 20.3187 5.11758 19.4281 5.12148 18.5414C5.12539 17.6547 5.13125 16.7601 5.13906 15.8578C5.14687 15.3812 5.14883 14.9047 5.14492 14.4281C5.14102 13.9515 5.15078 13.4711 5.17422 12.9867C5.67422 12.8383 6.17422 12.7269 6.67422 12.6527C7.17422 12.5785 7.68984 12.5414 8.22109 12.5414C8.52187 12.5414 8.82266 12.5668 9.12344 12.6176C9.42422 12.6644 9.71133 12.7406 9.98477 12.8461C10.2621 12.9515 10.518 13.0844 10.7523 13.2445C10.9906 13.4008 11.1957 13.5883 11.3676 13.807C11.5395 14.0258 11.6742 14.2758 11.7719 14.557C11.8734 14.8344 11.9242 15.1469 11.9242 15.4945ZM9.32266 15.6937C9.32266 15.4398 9.24453 15.2426 9.08828 15.1019C8.93594 14.9574 8.73672 14.8851 8.49063 14.8851C8.40859 14.8851 8.32266 14.8929 8.23281 14.9086C8.14687 14.9203 8.06484 14.9359 7.98672 14.9554L7.91641 16.6664C7.97109 16.6742 8.02383 16.6781 8.07461 16.6781C8.12539 16.6781 8.17812 16.6781 8.23281 16.6781C8.37344 16.6781 8.5082 16.6547 8.63711 16.6078C8.76992 16.5609 8.88711 16.4945 8.98867 16.4086C9.09023 16.3187 9.17031 16.2152 9.22891 16.098C9.29141 15.9769 9.32266 15.8422 9.32266 15.6937Z" fill="#E9F2E0"/>
  <path d="M32.2598 12.9984L30.8887 20.8851L27.5605 20.9554L26.8457 16.9828L26.1309 20.6508L22.8027 20.7679L21.4199 13.2328L24.3262 12.975L24.9121 17.6039L25.6973 13.3265H27.9824L28.8965 17.6625L29.3652 12.7406L32.2598 12.9984Z" fill="#E9F2E0"/>
  <path d="M38.7166 18.1312C38.7166 18.6664 38.6228 19.1293 38.4353 19.5199C38.2517 19.9066 37.9978 20.2269 37.6736 20.4808C37.3533 20.7308 36.9763 20.9164 36.5427 21.0375C36.113 21.1547 35.6502 21.2133 35.1541 21.2133C34.9627 21.2133 34.7517 21.1879 34.5212 21.1371C34.2947 21.0863 34.0642 21.0238 33.8298 20.9496C33.5955 20.8715 33.3689 20.7894 33.1502 20.7035C32.9353 20.6136 32.7439 20.5297 32.5759 20.4515L32.8337 18.1547C33.1658 18.3539 33.533 18.5062 33.9353 18.6117C34.3416 18.7133 34.74 18.764 35.1306 18.764C35.2048 18.764 35.2947 18.7621 35.4002 18.7582C35.5056 18.7504 35.6052 18.7328 35.699 18.7054C35.7966 18.6742 35.8787 18.6293 35.9451 18.5707C36.0115 18.5121 36.0447 18.4281 36.0447 18.3187C36.0447 18.2445 36.0212 18.182 35.9744 18.1312C35.9275 18.0765 35.867 18.0336 35.7927 18.0023C35.7185 17.9672 35.6345 17.9418 35.5408 17.9261C35.447 17.9066 35.3552 17.8929 35.2654 17.8851C35.1755 17.8773 35.0916 17.8734 35.0134 17.8734C34.9353 17.8734 34.8728 17.8734 34.8259 17.8734C34.49 17.8734 34.1834 17.8207 33.906 17.7152C33.6326 17.6097 33.3962 17.4613 33.197 17.2699C33.0017 17.0746 32.8494 16.8402 32.74 16.5668C32.6306 16.2894 32.5759 15.9828 32.5759 15.6469C32.5759 15.1859 32.6677 14.7738 32.8513 14.4105C33.0388 14.0433 33.2869 13.7328 33.5955 13.4789C33.908 13.2211 34.2654 13.0238 34.6677 12.8871C35.0701 12.7504 35.4861 12.682 35.9158 12.682C36.1072 12.682 36.3045 12.6898 36.5076 12.7054C36.7107 12.7172 36.9119 12.7406 37.1111 12.7758C37.3142 12.8109 37.5115 12.8558 37.7029 12.9105C37.8943 12.9652 38.0759 13.0336 38.2478 13.1156L38.0252 15.4945C37.7595 15.4047 37.4802 15.3304 37.1873 15.2719C36.8982 15.2094 36.615 15.1781 36.3377 15.1781C36.2869 15.1781 36.2205 15.1801 36.1384 15.184C36.0603 15.184 35.9763 15.1898 35.8865 15.2015C35.8005 15.2094 35.7127 15.223 35.6228 15.2426C35.533 15.2621 35.4529 15.2894 35.3826 15.3246C35.3123 15.3558 35.2556 15.3988 35.2127 15.4535C35.1697 15.5082 35.1502 15.5726 35.1541 15.6469C35.158 15.7328 35.1892 15.7992 35.2478 15.8461C35.3103 15.8929 35.3884 15.9281 35.4822 15.9515C35.5798 15.9711 35.6853 15.9808 35.7986 15.9808C35.9158 15.9808 36.031 15.9789 36.1443 15.975C36.2576 15.9672 36.363 15.9613 36.4607 15.9574C36.5584 15.9496 36.6384 15.9476 36.7009 15.9515C37.0134 15.9711 37.2947 16.0375 37.5447 16.1508C37.7947 16.264 38.0056 16.4144 38.1775 16.6019C38.3533 16.7894 38.4861 17.014 38.5759 17.2758C38.6697 17.5336 38.7166 17.8187 38.7166 18.1312Z" fill="#E9F2E0"/>
  <path fill-rule="evenodd" clip-rule="evenodd" d="M14.8436 20.4149C12.9203 22.2271 10.9848 20.3689 13.6477 16.1827C16.3808 11.8861 19.9878 12.2823 20.1216 18.4837C20.2544 21.2178 17.9221 21.7221 17.4469 20.7434C16.8411 19.5795 16.1312 19.2239 14.8436 20.4149ZM16.5496 18.6932C17.797 18.9235 18.0019 18.3425 18.0063 17.6006C18.0108 16.8588 17.8896 15.5904 17.184 15.4174C16.4785 15.2443 15.8184 16.4355 15.5392 17.1653C15.2601 17.8952 15.3021 18.4629 16.5496 18.6932Z" fill="#E9F2E0"/>
  <path d="M20.4901 13.6894C20.0725 14.1446 19.6611 14.4369 19.3597 14.0688C19.0583 13.7007 19.2231 12.9785 19.3985 12.3565C19.574 11.7344 20.2275 11.609 20.5289 11.9771C20.8304 12.3451 20.9362 13.0991 20.4901 13.6894Z" fill="#E9F2E0"/>
  <path d="M18.9248 12.1602C18.5378 12.7104 18.1435 13.1028 17.8054 12.8317C17.4674 12.5606 17.5744 11.8229 17.7007 11.1785C17.827 10.534 18.4821 10.2359 18.8201 10.5069C19.1581 10.778 19.3295 11.4725 18.9248 12.1602Z" fill="#E9F2E0"/>
  <path d="M17.1107 11.0274C17.0835 11.776 16.973 12.4228 16.5795 12.5585C16.1859 12.6942 15.9054 12.0836 15.6856 11.5188C15.4658 10.954 15.8234 10.1233 16.2169 9.98765C16.6104 9.85196 17.084 10.1672 17.1107 11.0274Z" fill="#E9F2E0"/>
  <path d="M15.1394 11.7542C15.3431 12.4259 15.4413 13.0697 15.131 13.4746C14.8207 13.8794 14.3841 13.5521 14.0157 13.2204C13.6473 12.8888 13.7138 11.905 14.0241 11.5001C14.3344 11.0952 14.8535 11.0247 15.1394 11.7542Z" fill="#E9F2E0"/>
</svg>
