<svg width="56" height="77" viewBox="0 0 56 77" fill="none" xmlns="http://www.w3.org/2000/svg">
  <path fill-rule="evenodd" clip-rule="evenodd" d="M17.0944 70.4164C5.25606 81.5709 -6.65712 70.1337 9.73314 44.3669C26.5558 17.9203 48.7577 20.3594 49.5812 58.53C50.3986 75.3585 36.0427 78.4627 33.1182 72.4387C29.389 65.2743 25.0194 63.0855 17.0944 70.4164ZM27.7195 60.3467C35.8595 61.8496 37.1962 58.058 37.2252 53.2174C37.2541 48.3768 36.4631 40.1005 31.8595 38.9712C27.2559 37.8418 22.9481 45.6147 21.1267 50.3771C19.3053 55.1395 19.5796 58.8438 27.7195 60.3467Z" fill="#E9F2E0"/>
  <path d="M9.73314 44.3669L10.9481 45.1397L9.73314 44.3669ZM17.0944 70.4164L16.1166 69.3593L16.107 69.3684L17.0944 70.4164ZM49.5812 58.53L48.1417 58.561L48.1421 58.5804L48.1431 58.5998L49.5812 58.53ZM33.1182 72.4387L34.4135 71.8099L34.4047 71.7918L34.3954 71.7739L33.1182 72.4387ZM37.2252 53.2174L35.7853 53.2088L35.7853 53.2088L37.2252 53.2174ZM21.1267 50.3771L19.7819 49.8628L19.7819 49.8628L21.1267 50.3771ZM8.51822 43.5941C4.35768 50.1348 1.94704 55.8365 0.898223 60.5642C-0.14512 65.2673 0.132268 69.143 1.54751 71.8955C3.0074 74.7348 5.61384 76.2288 8.69844 76.1143C11.6893 76.0033 14.9691 74.3973 18.0818 71.4643L16.107 69.3684C13.3005 72.0127 10.6518 73.16 8.5916 73.2365C6.62514 73.3095 5.05799 72.4252 4.10858 70.5787C3.11452 68.6454 2.74689 65.5277 3.70964 61.1879C4.66691 56.8729 6.91348 51.4824 10.9481 45.1397L8.51822 43.5941ZM51.0208 58.4989C50.8123 48.8364 49.2509 41.3066 46.674 35.8773C44.0918 30.4367 40.4315 27.0039 36.029 25.826C31.6387 24.6513 26.8405 25.808 22.1569 28.8471C17.474 31.8857 12.7978 36.8662 8.51822 43.5941L10.9481 45.1397C15.0798 38.6443 19.4874 34.0122 23.7244 31.2628C27.9608 28.514 31.9188 27.7073 35.2847 28.6079C38.6385 29.5053 41.7345 32.1864 44.0724 37.1121C46.4157 42.0492 47.9384 49.1382 48.1417 58.561L51.0208 58.4989ZM31.8229 73.0676C32.7962 75.0725 34.6919 76.2389 36.8006 76.5933C38.901 76.9463 41.2712 76.5167 43.4488 75.3146C47.8715 72.8732 51.4494 67.3133 51.0194 58.4601L48.1431 58.5998C48.5304 66.5752 45.3391 70.9817 42.0571 72.7935C40.3823 73.718 38.6663 73.9867 37.2779 73.7534C35.898 73.5215 34.9024 72.8169 34.4135 71.8099L31.8229 73.0676ZM18.0721 71.4734C21.9696 67.8681 24.5678 67.026 26.3885 67.402C28.2423 67.7848 29.9977 69.5622 31.841 73.1035L34.3954 71.7739C32.5095 68.1508 30.2155 65.2517 26.9709 64.5817C23.6934 63.9049 20.1442 65.6338 16.1166 69.3594L18.0721 71.4734ZM35.7853 53.2088C35.771 55.607 35.4075 57.2245 34.4921 58.1464C33.6481 58.9966 31.8991 59.6542 27.981 58.9308L27.4581 61.7627C31.6799 62.5421 34.6693 62.0554 36.5358 60.1754C38.3311 58.3671 38.6504 55.6684 38.665 53.226L35.7853 53.2088ZM31.5165 40.3696C32.9847 40.7297 34.1386 42.3312 34.8906 45.0822C35.6103 47.7148 35.7995 50.8446 35.7853 53.2088L38.665 53.226C38.6799 50.7496 38.488 47.3209 37.6685 44.3229C36.8813 41.4433 35.338 38.3419 32.2026 37.5727L31.5165 40.3696ZM22.4716 50.8915C23.3518 48.59 24.8219 45.5987 26.5828 43.3533C27.4643 42.2293 28.3641 41.363 29.2344 40.8436C30.0856 40.3357 30.8296 40.2011 31.5165 40.3696L32.2026 37.5727C30.5877 37.1766 29.0669 37.5901 27.7587 38.3707C26.4696 39.14 25.3154 40.3029 24.3168 41.5762C22.3176 44.1255 20.723 47.4019 19.7819 49.8628L22.4716 50.8915ZM27.981 58.9308C24.0246 58.2003 22.5165 57.0176 21.9744 55.938C21.4136 54.8215 21.5754 53.2349 22.4716 50.8915L19.7819 49.8628C18.8567 52.2818 18.2449 54.9285 19.4009 57.2304C20.5755 59.5693 23.2745 60.9903 27.4581 61.7627L27.981 58.9308Z" fill="#E9F2E0"/>
  <path d="M53.4865 24.8623C50.7615 27.8323 48.0772 29.7399 46.1103 27.338C44.1434 24.9362 45.2189 20.2234 46.3638 16.1645C47.5086 12.1055 51.7731 11.2869 53.7399 13.6888C55.7068 16.0906 56.3976 21.0105 53.4865 24.8623Z" fill="#E9F2E0"/>
  <path d="M43.2786 14.8841C40.7534 18.4746 38.1801 21.0348 35.9743 19.2659C33.7686 17.497 34.4669 12.6835 35.2909 8.47834C36.1149 4.27317 40.3894 2.32758 42.5952 4.09648C44.8009 5.86538 45.9191 10.3971 43.2786 14.8841Z" fill="#E9F2E0"/>
  <path d="M31.4313 7.49267C31.2538 12.3776 30.5325 16.5982 27.9646 17.4836C25.3968 18.369 23.5665 14.3843 22.1323 10.699C20.6981 7.01369 23.0311 1.59344 25.599 0.708039C28.1668 -0.17736 31.2565 1.8797 31.4313 7.49267Z" fill="#E9F2E0"/>
  <path d="M18.5688 12.2356C19.8979 16.6186 20.5387 20.8193 18.5138 23.4613C16.4889 26.1034 13.6399 23.9672 11.2359 21.8032C8.83197 19.6393 9.26602 13.2195 11.2909 10.5775C13.3159 7.93549 16.7032 7.47538 18.5688 12.2356Z" fill="#E9F2E0"/>
</svg>
