<?xml version="1.0" encoding="UTF-8"?>
<svg xmlns="http://www.w3.org/2000/svg" version="1.1" width="1160px" height="1160px" style="shape-rendering:geometricPrecision; text-rendering:geometricPrecision; image-rendering:optimizeQuality; fill-rule:evenodd; clip-rule:evenodd">
  <path fill="#757575" d="M 378.5,2.5 C 425.506,1.20148 471.506,7.36815 516.5,21C 539.061,28.409 561.395,36.409 583.5,45C 625.282,62.391 666.949,80.0577 708.5,98C 726.421,105.196 744.421,112.196 762.5,119C 819.145,140.638 876.812,143.971 935.5,129C 960.933,120.783 984.6,109.116 1006.5,94C 1028.89,78.9407 1050.73,63.1074 1072,46.5C 1100.17,82.6667 1128.33,118.833 1156.5,155C 1117.25,201.928 1073.25,243.595 1024.5,280C 927.6,345.709 821.933,365.043 707.5,338C 666.036,326.266 625.37,312.266 585.5,296C 532.423,272.131 478.423,250.465 423.5,231C 380.945,215.849 337.278,210.849 292.5,216C 264.762,221.133 238.762,230.8 214.5,245C 171.282,277.541 131.782,314.375 96,355.5C 63.8044,314.938 31.971,274.105 0.5,233C 15.2932,215.205 30.4599,197.705 46,180.5C 74.9465,149.55 105.78,120.717 138.5,94C 209.25,39.5781 289.25,9.07809 378.5,2.5 Z"/>
  <path fill="#757575" d="M 1155.5,556.5 C 1117.15,601.688 1074.48,642.188 1027.5,678C 925.848,747.721 815.181,766.721 695.5,735C 670.644,727.27 645.977,718.937 621.5,710C 573.706,690.733 526.039,671.066 478.5,651C 444.39,637.186 409.39,626.186 373.5,618C 310.253,605.365 252.586,617.698 200.5,655C 163.133,685.697 128.299,719.197 96,755.5C 64.2545,715.267 32.7545,674.934 1.5,634.5C 1.38929,633.883 1.05596,633.383 0.5,633C 38.1129,587.387 79.1129,545.054 123.5,506C 149.674,483.834 178.007,464.834 208.5,449C 312.933,396.19 420.6,388.523 531.5,426C 591.543,447.458 650.543,471.458 708.5,498C 726.421,505.196 744.421,512.196 762.5,519C 778.813,524.881 795.48,529.548 812.5,533C 861.543,542.435 909.543,538.769 956.5,522C 997.702,500.767 1036.2,475.6 1072,446.5C 1100.17,482.667 1128.33,518.833 1156.5,555C 1155.94,555.383 1155.61,555.883 1155.5,556.5 Z"/>
  <path fill="#757575" d="M 378.5,802.5 C 425.506,801.201 471.506,807.368 516.5,821C 539.061,828.409 561.395,836.409 583.5,845C 625.282,862.391 666.949,880.058 708.5,898C 726.421,905.196 744.421,912.196 762.5,919C 819.145,940.638 876.812,943.971 935.5,929C 960.933,920.783 984.6,909.116 1006.5,894C 1028.89,878.941 1050.73,863.107 1072,846.5C 1100.17,882.667 1128.33,918.833 1156.5,955C 1123.13,994.034 1086.8,1030.03 1047.5,1063C 935.321,1149.26 811.321,1171.26 675.5,1129C 645.281,1118.59 615.281,1107.59 585.5,1096C 532.423,1072.13 478.423,1050.46 423.5,1031C 380.945,1015.85 337.278,1010.85 292.5,1016C 264.762,1021.13 238.762,1030.8 214.5,1045C 171.282,1077.54 131.782,1114.37 96,1155.5C 63.8044,1114.94 31.971,1074.1 0.5,1033C 30.6544,995.839 63.321,960.839 98.5,928C 111.833,916.667 125.167,905.333 138.5,894C 209.25,839.578 289.25,809.078 378.5,802.5 Z"/>
</svg>
