<svg xmlns="http://www.w3.org/2000/svg" width="190" height="30" viewBox="0 0 190 30">
    <g fill-rule="evenodd">
        <path d="M39.446 15.006c3.648 0 6.114-1.815 6.114-4.82 0-3.005-2.466-4.823-6.114-4.823h-6.412v9.643h6.412zM29.31 1.878h10.651c5.341 0 9.395 3.449 9.395 8.308 0 4.86-4.054 8.308-9.395 8.308h-6.927v8.864H29.31V1.878zM100.152 23.872L100.152 27.358 82.981 27.358 82.981 1.878 86.74 1.878 86.74 23.872zM103.668 27.357L107.388 27.357 107.388 1.878 103.668 1.878zM113.551 1.878L117.272 1.878 131.826 21.2 131.826 1.878 135.55 1.878 135.55 27.357 131.826 27.357 117.272 8.033 117.272 27.357 113.551 27.357zM157.29 18.79l-5.16-12.092-5.158 12.092h10.318zm1.437 3.376h-13.192l-2.211 5.191h-4.126l10.87-25.479h4.126l10.87 25.48h-4.125l-2.212-5.192zM172.232 15.006h6.412c3.648 0 6.114-1.815 6.114-4.82 0-3.005-2.466-4.823-6.114-4.823h-6.412v9.643zm9.838 3.116l6.448 9.236h-4.276l-6.19-8.864h-5.82v8.864h-3.724V1.878h10.651c5.341 0 9.395 3.449 9.395 8.308 0 3.932-2.652 6.934-6.484 7.936zM67.366 23.87c-1.452 1.618-3.491 2.65-5.716 2.65-4.298 0-7.928-3.803-7.928-8.305 0-2.201.878-4.23 2.277-5.73.21 6.093 5.293 11.186 11.367 11.384m.365-3.47c-4.297 0-7.928-3.803-7.928-8.305 0-.678.092-1.337.248-1.972.519-.115 1.053-.178 1.599-.178 4.28 0 7.897 3.788 7.897 8.271 0 .693-.095 1.365-.255 2.013-.506.112-1.028.171-1.56.171m5.586-2.502c-.172-6.118-5.255-11.243-11.331-11.426 1.457-1.617 3.508-2.648 5.744-2.648 4.281 0 7.898 3.787 7.898 8.27 0 2.234-.891 4.293-2.31 5.804m6.09-5.803C79.409 5.723 74.06.34 67.73.34c-4.737 0-8.925 2.982-10.759 7.134-4.115 1.85-7.064 6.022-7.064 10.74C49.908 24.603 55.285 30 61.65 30c4.695 0 8.848-2.971 10.68-7.113 4.12-1.842 7.079-6.043 7.079-10.793M10.904 1.622L0 26.757h4.138l2.218-5.121H19.59l2.218 5.12h4.138L15.042 1.623h-4.138zm2.068 4.754l5.176 11.93H7.798l5.174-11.93z"/>
    </g>
</svg>
