<svg
  xmlns="http://www.w3.org/2000/svg" width="254" height="39" viewBox="0 0 254 39">
  <path fill="#fff" d="M243.61,8.58c-2.54-2.52-6.12-4.07-10.27-4.06-4.14,0-7.74,1.56-10.3,4.1-1.59,1.57-2.78,3.52-3.45,5.69-.9,2.71-.91,5.64-.02,8.36,.66,2.18,1.84,4.14,3.44,5.72,2.54,2.52,6.12,4.06,10.26,4.06h.01c4.14,0,7.74-1.57,10.29-4.1,2.56-2.54,4.08-6.04,4.08-9.87v-.07c0-3.83-1.5-7.32-4.04-9.83" />
  <path fill="#fff" d="M218.3,14.31c-.66-2.11-1.82-3.99-3.4-5.49-2.54-2.42-6.13-3.87-10.33-3.87h-10.69v27.07h10.7c4.2,0,7.79-1.47,10.32-3.91,1.56-1.49,2.71-3.35,3.38-5.44h0c.83-2.73,.84-5.64,.02-8.36Z" />
  <path fill="#fff" d="M189.74,17.78c1.51-1.13,2.71-2.87,2.7-5.46v-.07c0-2.2-.9-4.08-2.52-5.35-1.61-1.27-3.88-1.95-6.62-1.95h-12.61v27.06h12.9c2.99,0,5.53-.61,7.37-1.89,.98-.67,1.74-1.56,2.23-2.62l.13-.33c.78-2,.74-4.23-.13-6.19-.71-1.44-1.93-2.47-3.46-3.22" />
  <path fill="#fff" d="M166.54,17.78c1.51-1.13,2.71-2.87,2.7-5.46v-.07c0-2.2-.9-4.08-2.52-5.35-1.61-1.27-3.88-1.95-6.62-1.95h-12.61v27.06h12.9c2.99,0,5.53-.61,7.37-1.89,.98-.67,1.74-1.56,2.23-2.62l.13-.33c.78-2,.74-4.23-.13-6.19-.71-1.44-1.93-2.47-3.46-3.22" />
  <path fill="#fff" d="M6.13,18.55v-.05c0-5.52,4.24-9.84,9.98-9.84,3.87,0,6.35,1.62,8.03,3.95l-3.95,3.05c-1.08-1.35-2.33-2.22-4.14-2.22-2.65,0-4.52,2.24-4.52,5v.05c0,2.84,1.87,5.06,4.52,5.06,1.97,0,3.14-.92,4.27-2.3l3.95,2.81c-1.79,2.46-4.19,4.27-8.38,4.27-5.41,0-9.76-4.14-9.76-9.79" />
  <path fill="#fff" d="M25.07,18.55v-.05c0-5.43,4.38-9.84,10.22-9.84s10.17,4.35,10.17,9.79v.05c0,5.44-4.38,9.84-10.22,9.84s-10.17-4.35-10.17-9.79m15.03,0v-.05c0-2.73-1.97-5.11-4.87-5.11s-4.79,2.33-4.79,5.06v.05c0,2.73,1.97,5.11,4.84,5.11s4.81-2.33,4.81-5.06" />
  <polygon fill="#fff" points="47.92 9.03 53.17 9.03 53.17 23.36 62.33 23.36 62.33 27.96 47.92 27.96 47.92 9.03" />
  <polygon fill="#fff" points="64.31 9.03 79.53 9.03 79.53 13.49 69.5 13.49 69.5 16.36 78.58 16.36 78.58 20.49 69.5 20.49 69.5 23.49 79.67 23.49 79.67 27.96 64.31 27.96 64.31 9.03" />
  <polygon fill="#fff" points="82.08 9.03 86.97 9.03 94.76 19.03 94.76 9.03 99.95 9.03 99.95 27.96 95.35 27.96 87.27 17.57 87.27 27.96 82.08 27.96 82.08 9.03" />
  <path fill="#fff" d="M101.6,25.14l2.92-3.49c1.87,1.49,3.95,2.27,6.14,2.27,1.4,0,2.16-.49,2.16-1.3v-.05c0-.79-.62-1.22-3.19-1.81-4.03-.92-7.14-2.05-7.14-5.95v-.05c0-3.52,2.79-6.06,7.33-6.06,3.22,0,5.73,.86,7.79,2.51l-2.62,3.7c-1.73-1.22-3.62-1.87-5.3-1.87-1.27,0-1.89,.54-1.89,1.22v.05c0,.87,.65,1.24,3.27,1.84,4.35,.95,7.06,2.35,7.06,5.89v.05c0,3.87-3.05,6.16-7.65,6.16-3.35,0-6.54-1.05-8.87-3.14" />
  <path fill="#fff" d="M119.75,18.55v-.05c0-5.43,4.38-9.84,10.22-9.84s10.17,4.35,10.17,9.79v.05c0,5.44-4.38,9.84-10.22,9.84s-10.17-4.35-10.17-9.79m15.03,0v-.05c0-2.73-1.97-5.11-4.87-5.11s-4.79,2.33-4.79,5.06v.05c0,2.73,1.97,5.11,4.84,5.11s4.81-2.33,4.81-5.06" />
</svg>
