<svg width="142" height="100" viewBox="-7 0 142 37" fill="none" style="background-color: #4e37de" xmlns="http://www.w3.org/2000/svg">
  <path d="M0.389193 24.7847H0V25.0228L0.215141 25.1293L0.389193 24.7847ZM12.0745 7.43081L12.2484 7.08616L12.0745 7L11.9004 7.08616L12.0745 7.43081ZM0.389193 13.2154L0.215141 12.8708L0 12.9773V13.2154H0.389193ZM23.7597 24.7847L23.9337 25.1293L24.1489 25.0228V24.7847H23.7597ZM12.0745 30.5692L11.9004 30.9139L12.0745 31L12.2484 30.9139L12.0745 30.5692ZM23.7597 13.2154H24.1489V12.9773L23.9337 12.8708L23.7597 13.2154ZM11.6852 19.0001V24.7847H12.4636V19.0001H11.6852ZM12.2484 25.1293L18.0911 22.237L17.743 21.5477L11.9004 24.44L12.2484 25.1293ZM18.3062 21.8924V16.1077H17.5278V21.8924H18.3062ZM17.743 15.7631L11.9004 18.6554L12.2484 19.3446L18.0911 16.4524L17.743 15.7631ZM12.2484 24.44L6.40586 21.5477L6.05777 22.237L11.9004 25.1293L12.2484 24.44ZM6.62101 21.8924V16.1077H5.84262V21.8924H6.62101ZM6.05777 16.4524L11.9004 19.3446L12.2484 18.6554L6.40586 15.7631L6.05777 16.4524ZM18.0911 15.7631L12.2484 12.8708L11.9004 13.5601L17.743 16.4524L18.0911 15.7631ZM11.9004 12.8708L6.05777 15.7631L6.40586 16.4524L12.2484 13.5601L11.9004 12.8708ZM5.84262 21.8924V27.6769H6.62101V21.8924H5.84262ZM6.40586 28.0216L12.2484 25.1293L11.9004 24.44L6.05777 27.3323L6.40586 28.0216ZM11.9004 18.6554L6.05777 21.5477L6.40586 22.237L12.2484 19.3446L11.9004 18.6554ZM6.40586 27.3323L0.563242 24.44L0.215141 25.1293L6.05777 28.0216L6.40586 27.3323ZM0.778387 24.7847V19.0001H0V24.7847H0.778387ZM0.215141 19.3446L6.05777 22.237L6.40586 21.5477L0.563242 18.6554L0.215141 19.3446ZM6.05777 15.7631L0.215141 18.6554L0.563242 19.3446L6.40586 16.4524L6.05777 15.7631ZM11.6852 13.2154V19.0001H12.4636V13.2154H11.6852ZM18.3062 16.1077V10.3231H17.5278V16.1077H18.3062ZM17.743 9.97847L11.9004 12.8708L12.2484 13.5601L18.0911 10.6678L17.743 9.97847ZM6.62101 16.1077V10.3231H5.84262V16.1077H6.62101ZM6.05777 10.6678L11.9004 13.5601L12.2484 12.8708L6.40586 9.97847L6.05777 10.6678ZM18.0911 9.97847L12.2484 7.08616L11.9004 7.77546L17.743 10.6678L18.0911 9.97847ZM11.9004 7.08616L6.05777 9.97847L6.40586 10.6678L12.2484 7.77546L11.9004 7.08616ZM0.778387 19.0001V13.2154H0V19.0001H0.778387ZM0.215141 13.5601L6.05777 16.4524L6.40586 15.7631L0.563242 12.8708L0.215141 13.5601ZM6.05777 9.97847L0.215141 12.8708L0.563242 13.5601L6.40586 10.6678L6.05777 9.97847ZM17.5278 21.8924V27.6769H18.3062V21.8924H17.5278ZM18.0911 28.0216L23.9337 25.1293L23.5856 24.44L17.743 27.3323L18.0911 28.0216ZM24.1489 24.7847V19.0001H23.3705V24.7847H24.1489ZM23.5856 18.6554L17.743 21.5477L18.0911 22.237L23.9337 19.3446L23.5856 18.6554ZM18.0911 27.3323L12.2484 24.44L11.9004 25.1293L17.743 28.0216L18.0911 27.3323ZM11.9004 19.3446L17.743 22.237L18.0911 21.5477L12.2484 18.6554L11.9004 19.3446ZM23.9337 18.6554L18.0911 15.7631L17.743 16.4524L23.5856 19.3446L23.9337 18.6554ZM11.6852 24.7847V30.5692H12.4636V24.7847H11.6852ZM12.2484 30.9139L18.0911 28.0216L17.743 27.3323L11.9004 30.2246L12.2484 30.9139ZM12.2484 30.2246L6.40586 27.3323L6.05777 28.0216L11.9004 30.9139L12.2484 30.2246ZM24.1489 19.0001V13.2154H23.3705V19.0001H24.1489ZM23.5856 12.8708L17.743 15.7631L18.0911 16.4524L23.9337 13.5601L23.5856 12.8708ZM23.9337 12.8708L18.0911 9.97847L17.743 10.6678L23.5856 13.5601L23.9337 12.8708Z" fill="#FCFCFC"/>
  <path d="M45.2446 19.7654C45.2446 15.699 41.9251 12.4961 37.8461 12.4961C33.7671 12.4961 30.4476 15.699 30.4476 19.7654C30.4476 23.8317 33.7671 27.0347 37.8461 27.0347C41.9251 27.0347 45.2446 23.8317 45.2446 19.7654ZM34.3297 19.7654C34.3297 17.6208 35.8207 16.0611 37.8461 16.0611C39.8715 16.0611 41.3344 17.6208 41.3344 19.7654C41.3344 21.91 39.8715 23.4697 37.8461 23.4697C35.8207 23.4697 34.3297 21.91 34.3297 19.7654Z" fill="#FCFCFC"/>
  <path d="M62.5676 21.4086H58.573C58.0385 22.662 56.9976 23.5811 55.366 23.5811C53.3406 23.5811 51.8497 22.0771 51.8497 19.7654C51.8497 17.4537 53.3406 15.9497 55.366 15.9497C56.9976 15.9497 58.0385 16.8688 58.573 18.1221H62.5676C61.8081 14.9192 59.2481 12.4961 55.366 12.4961C51.0901 12.4961 47.9676 15.7269 47.9676 19.7654C47.9676 23.8039 51.0901 27.0347 55.366 27.0347C59.2481 27.0347 61.8081 24.6116 62.5676 21.4086Z" fill="#FCFCFC"/>
  <path d="M75.0927 26.5891V23.219C74.6426 23.3861 74.1363 23.4697 73.5174 23.4697C71.8577 23.4697 71.1262 22.8012 71.1262 21.1023V16.1447H75.0927V12.8024H71.1262V8.93105H67.2723V12.8024H64.4311V16.1447H67.2723V21.8543C67.2723 25.2522 69.6634 26.8954 72.6453 26.8954C73.7143 26.8954 74.4738 26.784 75.0927 26.5891Z" fill="#FCFCFC"/>
  <path d="M77.5942 19.7654C77.5942 23.7203 80.4636 27.0347 84.205 27.0347C86.146 27.0347 87.637 26.0599 88.2559 25.1686V26.7283H92.1098V12.8024H88.2559V14.3621C87.637 13.4709 86.146 12.4961 84.205 12.4961C80.4636 12.4961 77.5942 15.8104 77.5942 19.7654ZM88.5653 19.7654C88.5653 21.9378 87.1306 23.5532 85.0208 23.5532C82.911 23.5532 81.4763 21.9378 81.4763 19.7654C81.4763 17.5929 82.911 15.9775 85.0208 15.9775C87.1306 15.9775 88.5653 17.5929 88.5653 19.7654Z" fill="#FCFCFC"/>
  <path d="M96.7005 26.7283H100.554V19.9325C100.554 17.2587 101.905 15.9775 103.677 15.9775C105.28 15.9775 106.152 17.203 106.152 19.2083V26.7283H110.006V18.5678C110.006 14.947 107.981 12.4961 104.577 12.4961C102.749 12.4961 101.286 13.2759 100.554 14.39V12.8024H96.7005V26.7283Z" fill="#FCFCFC"/>
  <path d="M113.484 19.7654C113.484 23.7203 116.354 27.0347 120.095 27.0347C122.036 27.0347 123.527 26.0599 124.146 25.1686V26.7283H128V12.8024H124.146V14.3621C123.527 13.4709 122.036 12.4961 120.095 12.4961C116.354 12.4961 113.484 15.8104 113.484 19.7654ZM124.455 19.7654C124.455 21.9378 123.021 23.5532 120.911 23.5532C118.801 23.5532 117.366 21.9378 117.366 19.7654C117.366 17.5929 118.801 15.9775 120.911 15.9775C123.021 15.9775 124.455 17.5929 124.455 19.7654Z" fill="#FCFCFC"/>
</svg>
