<svg width="120" height="90" id="Layer_1" xmlns="http://www.w3.org/2000/svg" xmlns:xlink="http://www.w3.org/1999/xlink" x="0px" y="0px" viewBox="140 105 230 300" xml:space="preserve" class="css-1v9rb03">
  <style type="text/css">
    .st0{fill:#656565;}
    .st1{fill:#333333;}
    .st2{fill:#14C1C1;}
    .st3{fill:#343434;}
    .st4{fill:#237A7A;}
    .st5{fill:#13C0C0;}
    .st6{opacity:0.8;fill:#FEFEFE;}
    .st7{opacity:0.8;fill:#FDFDFD;}
  </style>
  <path class="st0" d="M77,194c0-0.1,0.1-0.1,0.2-0.1c0,0.5,0.1,0.9,0.1,1.4c0,42.8,0,85.6,0,128.4c-0.1,0-0.2,0-0.2,0 C77,280.5,77,237.3,77,194z" />
  <path class="st1" d="M247.2,399.5c-1.3,0-2.7,0-4,0c-7.2-0.3-14.2-1.5-20.9-4.4c-14.3-6.3-23.1-17.3-27.1-32.3 c-1.6-5.9-2.3-11.9-2.3-18c0-15.1,0-30.2,0-45.4c0-0.9-0.2-1.4-1.2-1.7c-10.4-3.1-19.1-8.9-26.1-17.2c-0.7-0.8-1.1-0.7-1.8-0.2 c-1.9,1.2-3.8,2.4-5.8,3.1c-2,0.7-3,2.1-3.9,3.9c-3.1,6.9-6.3,13.8-9.5,20.6c-0.5,1.2-1.1,2.3-1.6,3.5c-0.3,0.7-0.6,0.9-1.3,1 c-20.3,3.6-40.5,7.1-60.8,10.7c-1.3,0.2-2.5,0.4-3.8,0.6c0-42.8,0-85.6,0-128.4c0-0.5,0-0.9-0.1-1.4c1.3-3.4,2.6-6.8,3.9-10.2 c1.9-4.9,3.8-9.8,5.7-14.8c1.4-3.7,2.9-7.5,4.3-11.2c0.1-0.3,0.2-0.5,0.2-0.8c0,0,0.1,0,0.1,0l0.1,0c0,0.5,0.1,1.1,0.1,1.6 c0,42.6,0,85.1,0,127.7c0,0.6,0.1,1.3,0,1.9c-0.1,1.1,0.4,1.3,1.3,1.1c4-0.7,8-1.4,12-2.1c5-0.9,10-1.8,14.9-2.7 c5-0.9,9.9-1.7,14.9-2.6c3.8-0.7,7.6-1.5,11.4-2.1c3.8-0.6,7.7-1.3,11.5-1.9c1.3-0.2,1.3-0.7,1.3-1.7c0-7.2,0-14.3-0.1-21.5 c0-1.3,0.6-1.7,1.6-1.9c4.1-0.9,8.1-2.3,11.9-3.9c3-1.3,6-2.8,8.8-4.5c0.5-0.3,0.9-0.4,1.3,0.2c1.6,2.1,3.3,4,5.3,5.7 c0,0.1,0.1,0.2,0.3,0.2c1,0.8,2,1.7,3,2.5c0.1,0.1,0.2,0.1,0.3,0.2c0.3,0.2,0.5,0.5,0.8,0.7c5.4,3.9,11.2,7,17.7,8.8 c0.9,0.3,1.1,0.8,1.1,1.6c0,15.7,0,31.4,0.1,47.1c0,2.8,0,5.7,0.4,8.4c0.6,3.9,1.2,7.7,2.3,11.4c2.2,7.5,5.7,14.4,11,20.2 c5.8,6.4,13.1,10.8,21.3,13.4c4.9,1.6,10.1,2.5,15.4,2.6c5.9,0.1,11.7-0.1,17.4-1.2c4.5-0.8,8.9-1.8,13.3-3.1 c4.4-1.4,8.7-3.2,12.8-5.3c3.7-1.9,7.2-4.3,10.6-6.6c0.1,0,0.3,0,0.4,0c0,2,0.1,4.1,0.1,6.1c0,0.8,0,1.2,1,0.9 c1.5-0.4,3.1-0.6,4.6-0.8c5.7-1,11.4-2,17.1-3c8-1.4,15.9-2.8,23.9-4.2c3.8-0.7,7.5-1.3,11.3-2c3-0.5,5.9-1,8.9-1.5 c-0.4,1.5-1.6,2.6-2.4,3.8c-2.6,3.9-5.4,7.8-8.2,11.7c-2.9,4.1-5.8,8.2-8.6,12.3c-0.9,1.3-1.9,2.4-2.6,3.8 c-0.4,0.6-0.9,1.1-1.7,1.2c-11.1,1.9-22.3,3.9-33.4,5.9c-10,1.8-20.1,3.5-30.1,5.3c-1,0.2-1.1-0.1-1.1-1c0-1.9,0-3.8,0-5.7 c-0.4-0.2-0.6,0.1-0.8,0.3c-9.5,7-20.1,11.2-31.6,13.5C257.4,398.7,252.4,399.3,247.2,399.5z" />
  <path class="st2" d="M315.7,351.2c-3.5,2.3-6.9,4.7-10.6,6.6c-4.1,2.1-8.4,3.9-12.8,5.3c-4.3,1.4-8.8,2.3-13.3,3.1 c-5.8,1-11.6,1.3-17.4,1.2c-5.3-0.1-10.4-1-15.4-2.6c-8.2-2.6-15.5-7-21.3-13.4c-5.3-5.8-8.8-12.6-11-20.2 c-1.1-3.8-1.8-7.6-2.3-11.4c-0.4-2.8-0.4-5.6-0.4-8.4c0-15.7-0.1-31.4-0.1-47.1c0-0.8-0.1-1.3-1.1-1.6c-6.5-1.8-12.3-4.9-17.7-8.8 c-0.3-0.2-0.6-0.5-0.8-0.7c-0.1-0.1-0.2-0.1-0.3-0.2c-1-0.8-2-1.7-3-2.5c-0.1-0.1-0.2-0.1-0.3-0.2c-2-1.7-3.7-3.6-5.3-5.7 c-0.4-0.6-0.8-0.6-1.3-0.2c-2.8,1.8-5.8,3.2-8.8,4.5c-3.8,1.7-7.8,3-11.9,3.9c-1.1,0.2-1.7,0.5-1.6,1.9c0.1,7.2,0,14.3,0.1,21.5 c0,1-0.1,1.5-1.3,1.7c-3.8,0.6-7.7,1.3-11.5,1.9c-3.8,0.6-7.6,1.4-11.4,2.1c-5,0.9-9.9,1.8-14.9,2.6c-5,0.9-10,1.8-14.9,2.7 c-4,0.7-8,1.4-12,2.1c-0.9,0.2-1.4,0-1.3-1.1c0.1-0.6,0-1.2,0-1.9c0-42.6,0-85.1,0-127.7c0-0.5,0-1.1-0.1-1.6c0-0.1,0-0.1,0-0.2 c0-0.5,0-0.9,0.7-1c6.2-1.1,12.3-2.2,18.5-3.2c7.3-1.3,14.6-2.5,21.9-3.8c7-1.2,14-2.7,21.1-3.6c10.5-1.3,20.9-0.7,30.8,3.5 c2.1,0.9,4.2,1.9,6.1,3.2c0.9,0.6,1.4,0.5,2.1-0.2c9.2-9.4,20.2-15.9,32.7-19.8c9.4-3,19-4.5,28.9-4.3c5.8,0.1,11.5,1,17,2.7 c0.3,0.1,0.6,0.2,1,0.2c0.9,0.4,1.7,0.7,2.6,1.1c0.7,0.3,0.8-0.1,0.8-0.6c0-2.1,0-4.2-0.1-6.4c-0.2-0.8,0.3-1,0.9-1.1 c7.7-1.3,15.5-2.7,23.2-4c7.3-1.3,14.6-2.7,22-3.9c5.6-1,11.2-2.1,16.9-2.8c1.8-0.2,3.6-0.3,5.5-0.4c1.9,0,3.8,0,5.7,0 c5.3,0.2,10.5,1.1,15.5,2.8c7.4,2.5,13.7,6.6,18.8,12.5c5.1,5.9,8.2,12.8,9.7,20.4c1.2,5.8,1.5,11.7,0.9,17.6 c-0.9,9.8-4,18.9-9.5,27.2c-0.8,1.3-1.7,2.5-2.5,3.8c-0.4,0-0.7,0.3-0.9,0.6c-3.2,4.3-7.1,8-11.3,11.2c-5.5,4.2-11.6,7.5-18.2,9.7 c-0.3,0.1-0.5,0.2-0.8,0.4c0.7,0.1,1.3,0.1,1.8,0c3.6-0.6,7.1-1.2,10.6-1.9c2.5-0.5,5-0.6,7.4-1.5c1.9-0.3,3.9-0.5,5.8-0.8 c5.1-0.7,10.2-0.9,15.4-0.5c6.4,0.5,12.6,1.9,18.4,4.8c12.4,6.1,20,16.1,23.1,29.5c0.8,3.6,1.2,7.3,1.3,11c0,1.3,0,2.7,0,4 c-0.2,5.5-1,11-2.7,16.2c-1.9,6.1-4.8,11.8-8.6,17c-0.2,0.1-0.3,0.3-0.3,0.5c-0.1,0.2-0.3,0.4-0.4,0.6c-0.3,0.1-0.3,0.3-0.3,0.5 c-0.2,0.2-0.3,0.3-0.5,0.5c-0.2,0.1-0.3,0.3-0.3,0.5c-0.3,0.3-0.5,0.6-0.8,1c-0.3,0-0.5,0.2-0.5,0.5c-0.1,0.1-0.2,0.3-0.3,0.4 c-0.3,0-0.5,0.2-0.7,0.4c-1.7,2.1-3.7,4-5.8,5.8c-3.7,3.2-7.6,6-11.9,8.3c-5.7,3-11.7,5.2-17.9,6.7c-0.9,0.2-1.1,0.6-1.1,1.4 c0.1,5.5,0.1,11.1,0.1,16.6c0,2,0,4.1,0.1,6.1c0.1,0.6-0.4,0.5-0.7,0.7c-3,0.5-5.9,1-8.9,1.5c-3.8,0.7-7.5,1.3-11.3,2 c-8,1.4-15.9,2.8-23.9,4.2c-5.7,1-11.4,2-17.1,3c-1.5,0.3-3.1,0.4-4.6,0.8c-1.1,0.3-1-0.1-1-0.9c0-2,0-4.1-0.1-6.1 C316,350.8,315.9,351.1,315.7,351.2z M283.6,145.4c-0.6-0.4-0.9-0.6-1.2-0.8c-3.4-2.4-7.1-4.3-11-5.8c-8.8-3.2-17.9-3.8-27.2-2.8 c-10.4,1.2-20.3,4-29.6,9c-5.7,3.1-10.7,6.9-15.4,11.3c-2.1,2-4.1,4.2-5.8,6.6c-0.5,0.6-0.8,0.7-1.5,0.1c-1.4-1.4-2.9-2.6-4.5-3.7 c-6.3-4.2-13.3-6.1-20.7-6.5c-5-0.3-10-0.1-15,0.8c-7.6,1.3-15.2,2.7-22.8,4c-9.2,1.6-18.4,3.3-27.6,4.9c-1.3,0.2-1.5,0.7-1.5,1.8 c0,38,0,76,0,114c0,0.2,0,0.4,0,0.6c-0.1,0.9,0.3,1,1,0.8c1.1-0.2,2.2-0.5,3.3-0.7c7-1.2,14-2.4,21-3.6c8.2-1.4,16.5-2.9,24.7-4.4 c1-0.2,1.3-0.5,1.3-1.5c0-7.2,0-14.5-0.1-21.7c0-1.1,0.3-1.4,1.3-1.6c1.8-0.3,3.5-0.6,5.2-1c9.3-2.1,17.9-5.8,25.4-11.9 c1.2-1,1.2-1,2,0.4c1.9,3.2,4.2,6.1,6.8,8.8c7.3,7.3,16.1,11.9,26.2,13.8c1.1,0.2,1.3,0.6,1.3,1.6c0,16.3,0,32.7,0,49 c0,3.5-0.1,6.9,0.3,10.4c0.6,6.7,2,13.2,5,19.2c7.7,15.3,20.8,22,37.3,22.9c9.8,0.6,19.4-1.1,28.7-4.2c12.2-4,22.6-10.6,30.7-20.7 c1-1.2,1.9-2.4,2.9-3.9c0,0.7,0,1.1,0,1.6c0,5.1,0,10.2,0,15.2c0,1.2,0.4,1.4,1.4,1.1c0.6-0.2,1.2-0.2,1.8-0.3 c9.6-1.7,19.2-3.4,28.8-5.1c6-1.1,12-2.1,18-3.2c0.9-0.2,1.2-0.5,1.2-1.4c0-7.3,0-14.7,0-22c0-0.9,0.2-1.2,1.1-1.4 c5-0.8,9.8-2,14.5-3.7c10.3-3.8,18.9-10,25.6-18.7c6.7-8.7,10.2-18.5,10.7-29.5c0.2-4.6-0.2-9.1-1.2-13.6 c-2.5-10.8-8.5-18.8-18.5-23.8c-5-2.5-10.4-3.7-15.9-4.1c-4.7-0.4-9.5-0.2-14.2,0.5c-6.3,1-12.6,2.1-19,3.3 c-7.5,1.3-15.1,2.6-22.6,4c-1.2,0.2-1.2-0.2-1.2-1.1c0-4.4,0.1-8.7,0-13.1c0-1.2,0.5-1.5,1.4-1.6c3.4-0.5,6.7-1.3,10-2.3 c11.1-3.4,20.6-9.2,28.2-18.1c7.3-8.6,11.3-18.4,12.2-29.6c0.4-5.9,0-11.9-1.7-17.7c-2-6.8-5.6-12.6-11-17.1 c-7-5.8-15.2-8.2-24.1-8.7c-7.7-0.5-15.2,1-22.8,2.3c-9.2,1.7-18.3,3.3-27.5,4.9c-5,0.9-9.9,1.7-14.9,2.6c-0.8,0.1-1.1,0.4-1.1,1.3 c0,4.1,0,8.2-0.1,12.4C283.6,144.2,283.6,144.7,283.6,145.4z" />
  <path class="st3" d="M275.5,124.4c0,2.1,0,4.2,0.1,6.4c0,0.6-0.1,0.9-0.8,0.6c-0.9-0.4-1.7-0.7-2.6-1.1c1-1.4,1.5-3.1,2.4-4.5 C274.9,125.4,274.8,124.6,275.5,124.4z" />
  <path class="st4" d="M91.6,156.7c0,0.1,0,0.2,0,0.2c0,0-0.1,0-0.1,0s-0.1,0-0.1,0C91.4,156.9,91.5,156.8,91.6,156.7z" />
  <path class="st1" d="M383.7,346c0-2,0-4.1-0.1-6.1c0-5.5,0-11.1-0.1-16.6c0-0.8,0.2-1.2,1.1-1.4c6.2-1.5,12.2-3.6,17.9-6.7 c4.3-2.3,8.3-5.1,11.9-8.3c2.1-1.8,4.1-3.7,5.8-5.8c0.2-0.2,0.4-0.4,0.7-0.4c-0.7,1.7-2,3.1-3.1,4.6c-6.1,8.7-12.2,17.3-18.5,25.9 C395.2,337.1,389.8,342,383.7,346z" />
  <path class="st5" d="M421.2,300.3c0-0.3,0.1-0.5,0.5-0.5C421.7,300,421.4,300.1,421.2,300.3z" />
  <path class="st5" d="M424,296.7c0-0.2,0.1-0.4,0.3-0.5C424.2,296.4,424.1,296.6,424,296.7z" />
  <path class="st5" d="M423.2,297.8c0-0.2,0.1-0.4,0.3-0.5C423.5,297.5,423.5,297.7,423.2,297.8z" />
  <path class="st5" d="M422.5,298.8c0-0.2,0-0.4,0.3-0.5C422.7,298.5,422.8,298.7,422.5,298.8z" />
  <path class="st3" d="M371.5,215c-2.4,0.8-5,1-7.4,1.5c-3.5,0.7-7.1,1.3-10.6,1.9c-0.6,0.1-1.2,0.1-1.8,0c0.3-0.1,0.5-0.3,0.8-0.4 c6.6-2.3,12.6-5.5,18.2-9.7c4.3-3.2,8.1-6.9,11.3-11.2c0.2-0.3,0.5-0.6,0.9-0.6c-0.4,1.4-1.4,2.6-2.2,3.8 C377.6,205.2,374.5,210.1,371.5,215z" />
  <path class="st3" d="M315.7,351.2c0.1-0.2,0.3-0.4,0.4,0C316,351.2,315.9,351.2,315.7,351.2z" />
  <path class="st5" d="M188,250.3c0.1,0.1,0.2,0.1,0.3,0.2C188.1,250.5,188,250.4,188,250.3z" />
  <path class="st5" d="M191.2,253c0.1,0.1,0.2,0.1,0.3,0.2C191.4,253.1,191.3,253.1,191.2,253z" />
  <path class="st3" d="M283.6,145.4c0-0.7,0-1.2,0-1.6c0-4.1,0.1-8.2,0.1-12.4c0-0.9,0.3-1.1,1.1-1.3c5-0.8,9.9-1.7,14.9-2.6 c9.2-1.6,18.3-3.2,27.5-4.9c7.5-1.4,15.1-2.8,22.8-2.3c8.9,0.5,17.1,2.9,24.1,8.7c5.5,4.5,9,10.3,11,17.1 c1.7,5.8,2.1,11.7,1.7,17.7c-0.8,11.2-4.9,21-12.2,29.6c-7.6,8.9-17.1,14.8-28.2,18.1c-3.3,1-6.6,1.8-10,2.3 c-1,0.1-1.5,0.4-1.4,1.6c0.1,4.4,0.1,8.7,0,13.1c0,0.9,0,1.3,1.2,1.1c7.5-1.4,15.1-2.7,22.6-4c6.3-1.1,12.6-2.3,19-3.3 c4.7-0.7,9.4-0.9,14.2-0.5c5.5,0.4,10.9,1.6,15.9,4.1c9.9,5,16,13.1,18.5,23.8c1,4.5,1.4,9,1.2,13.6c-0.5,10.9-4,20.8-10.7,29.5 c-6.7,8.7-15.3,14.9-25.6,18.7c-4.7,1.8-9.6,2.9-14.5,3.7c-0.9,0.1-1.1,0.5-1.1,1.4c0,7.3,0,14.7,0,22c0,1-0.3,1.3-1.2,1.4 c-6,1-12,2.1-18,3.2c-9.6,1.7-19.2,3.4-28.8,5.1c-0.6,0.1-1.2,0.2-1.8,0.3c-1.1,0.3-1.4,0.1-1.4-1.1c0.1-5.1,0-10.2,0-15.2 c0-0.4,0-0.8,0-1.6c-1.1,1.4-2,2.7-2.9,3.9c-8.1,10.1-18.6,16.7-30.7,20.7c-9.3,3.1-18.9,4.8-28.7,4.2c-16.4-1-29.6-7.6-37.3-22.9 c-3-6-4.4-12.5-5-19.2c-0.3-3.5-0.3-6.9-0.3-10.4c0-16.3,0-32.7,0-49c0-1-0.2-1.4-1.3-1.6c-10.2-1.9-18.9-6.4-26.2-13.8 c-2.6-2.6-4.9-5.6-6.8-8.8c-0.8-1.4-0.8-1.4-2-0.4c-7.5,6-16.1,9.7-25.4,11.9c-1.7,0.4-3.5,0.7-5.2,1c-1,0.1-1.3,0.5-1.3,1.6 c0.1,7.2,0,14.5,0.1,21.7c0,1-0.3,1.3-1.3,1.5c-8.3,1.4-16.5,2.9-24.7,4.4c-7,1.2-14,2.4-21,3.6c-1.1,0.2-2.2,0.4-3.3,0.7 c-0.7,0.2-1.2,0.1-1-0.8c0-0.2,0-0.4,0-0.6c0-38,0-76,0-114c0-1.2,0.2-1.6,1.5-1.8c9.2-1.6,18.4-3.2,27.6-4.9 c7.6-1.3,15.2-2.7,22.8-4c5-0.8,10-1,15-0.8c7.4,0.4,14.4,2.4,20.7,6.5c1.6,1.1,3.2,2.2,4.5,3.7c0.6,0.6,1,0.5,1.5-0.1 c1.8-2.3,3.7-4.6,5.8-6.6c4.7-4.4,9.8-8.2,15.4-11.3c9.3-5.1,19.2-7.8,29.6-9c9.3-1.1,18.4-0.5,27.2,2.8c3.9,1.4,7.6,3.4,11,5.8 C282.7,144.8,283,145,283.6,145.4z M191.8,185c-0.1-0.8-0.2-1.5-0.4-2.3c-1.9-10.4-7.8-17.3-18-20.4c-7.1-2.2-14.4-1.9-21.6-0.7 c-13.9,2.4-27.8,4.9-41.8,7.3c-1.1,0.2-1.4,0.5-1.4,1.6c0,31.4,0,62.7,0,94.1c0,0.5,0,0.9,0,1.4c0.4,0,0.7,0,1-0.1 c9.7-1.7,19.3-3.5,29-5.1c1.2-0.2,1.4-0.6,1.4-1.7c-0.1-7.1,0-14.2-0.1-21.4c0-1.2,0.4-1.6,1.5-1.8c5.4-1,10.9-1.7,16.3-3.2 c14-4,24.6-12.2,30.8-25.6c0.1-0.1,0.1-0.3,0.3-0.2c0.2,2.6,0.4,5.2,1,7.8c3.6,15.7,13.3,25.5,28.8,29.5c7.3,1.9,14.7,1.5,22.1,0.3 c14.3-2.4,26.8-8.3,36.8-18.9c7-7.4,12.1-15.9,14.6-25.9c0.5-1.8,0.8-3.7,1.3-5.5c0.1,0.1,0,0.2,0,0.4c0,12.7,0,25.3,0,38 c0,1.2,0.5,1.1,1.3,1c9.7-1.7,19.3-3.4,29-5.1c1-0.2,1.1-0.6,1.1-1.4c0-7.2,0-14.5,0-21.7c0-1.1,0.3-1.4,1.4-1.6 c5-0.9,10.1-1.6,15.1-2.8c10.8-2.8,19.9-8.2,26.8-17.1c7.6-9.9,10.1-21,8.1-33.2c-1.9-11.3-8.7-18.3-19.8-21.1 c-6.4-1.6-12.9-1.4-19.3-0.3c-14.2,2.4-28.3,5-42.5,7.4c-0.9,0.2-1.2,0.5-1.2,1.5c0,7.2,0,14.5,0,21.7c0,5.6,0,11.2,0,16.8 c-0.2-0.3-0.3-0.8-0.4-1.2c-3.1-17.5-17.7-30.4-35.4-31.6c-6.6-0.4-13,0.1-19.5,1.5c-18.1,3.9-32,13.7-41.5,29.5 C194.9,178.1,193.3,181.5,191.8,185z M325,268.2C325,268.2,325,268.2,325,268.2c0-9,0-18.1,0.1-27.1c0-1.1-0.2-1.3-1.3-1.1 c-9.6,1.7-19.2,3.4-28.9,5.1c-1,0.2-1.3,0.5-1.3,1.6c0,16,0,32.1,0,48.1c0,2.6-0.2,5.2-0.6,7.7c-1.1,5.7-3.6,10.5-9,13.4 c-3.5,1.8-7.2,2.7-11.1,2.6c-5.6-0.1-9.1-2.7-10.8-8.1c-1-3.1-1.3-6.4-1.3-9.6c0-16.1,0-32.2,0-48.4c0-0.9-0.1-1.3-1.2-1.1 c-9.7,1.7-19.3,3.5-29,5.1c-1,0.2-1.3,0.5-1.2,1.5c0,15.6,0,31.2,0,46.7c0,3.2,0,6.5,0.3,9.7c0.6,6.3,1.9,12.3,5.1,17.8 c5.9,10,15.1,14.4,26.2,15.3c9.6,0.7,18.9-0.9,28-4c8.3-2.8,15.6-7.2,21.7-13.5c9.7-10,13.8-22.3,14.1-35.9 C325.2,285.5,325,276.9,325,268.2z M333.3,286.6c0,15.7,0,31.5,0,47.2c0,1.1,0.3,1.3,1.3,1.1c9.6-1.7,19.2-3.4,28.9-5.1 c1-0.2,1.3-0.5,1.3-1.5c0-7.3,0-14.7,0-22c0-0.8,0.2-1.2,1-1.3c2-0.3,4-0.7,6-1c5.7-0.9,11.3-2.1,16.6-4.3 c20.1-8.1,31.2-27.4,27.6-48.2c-1.7-9.8-7.2-16.5-16.7-19.9c-7-2.5-14.3-2.5-21.5-1.3c-14.4,2.4-28.8,5-43.1,7.5 c-1.2,0.2-1.5,0.7-1.4,1.8C333.3,255.3,333.3,270.9,333.3,286.6z" />
  <path class="st6" d="M191.8,185c1.5-3.5,3-7,5-10.2c9.6-15.9,23.5-25.6,41.5-29.5c6.4-1.4,12.9-2,19.5-1.5 c17.7,1.1,32.3,14.1,35.4,31.6c0.1,0.4,0.2,0.9,0.4,1.2c0-5.6,0-11.2,0-16.8c0-7.2,0-14.5,0-21.7c0-0.9,0.2-1.3,1.2-1.5 c14.2-2.5,28.3-5,42.5-7.4c6.4-1.1,12.9-1.3,19.3,0.3c11.1,2.8,17.9,9.7,19.8,21.1c2,12.1-0.5,23.3-8.1,33.2 c-6.9,8.9-16,14.3-26.8,17.1c-5,1.3-10,2-15.1,2.8c-1.1,0.2-1.4,0.5-1.4,1.6c0.1,7.2,0,14.5,0,21.7c0,0.9-0.2,1.3-1.1,1.4 c-9.7,1.7-19.3,3.4-29,5.1c-0.8,0.1-1.3,0.2-1.3-1c0-12.7,0-25.3,0-38c0-0.1,0-0.2,0-0.4c-0.4,1.8-0.8,3.7-1.3,5.5 c-2.5,10-7.6,18.5-14.6,25.9c-10,10.6-22.5,16.5-36.8,18.9c-7.4,1.2-14.8,1.6-22.1-0.3c-15.5-4-25.2-13.8-28.8-29.5 c-0.6-2.6-0.8-5.2-1-7.8c-0.3-0.1-0.3,0.1-0.3,0.2c-6.2,13.4-16.8,21.6-30.8,25.6c-5.3,1.5-10.8,2.2-16.3,3.2 c-1.1,0.2-1.5,0.6-1.5,1.8c0.1,7.1,0,14.2,0.1,21.4c0,1.1-0.3,1.5-1.4,1.7c-9.7,1.7-19.3,3.4-29,5.1c-0.3,0.1-0.6,0-1,0.1 c0-0.5,0-0.9,0-1.4c0-31.4,0-62.7,0-94.1c0-1.1,0.3-1.4,1.4-1.6c13.9-2.4,27.8-5,41.8-7.3c7.2-1.2,14.5-1.5,21.6,0.7 c10.2,3.1,16.1,10,18,20.4C191.6,183.5,191.7,184.3,191.8,185z M262.5,190.9c0-1.3-0.1-2.6-0.3-4c-1-7.5-6.5-13.3-13.6-14.1 c-6.4-0.7-12.4,0.7-17.6,4.6c-8.1,6.1-11.4,14.4-10.4,24.4c0.9,9.3,8.2,15.2,17.5,14.6C254.2,215.4,262.7,202.7,262.5,190.9z  M140.1,200c0,3.5,0,7,0,10.5c0,1.2,0.1,1.6,1.4,1.3c2.8-0.6,5.7-1,8.5-1.6c10.2-2.1,13.5-10,11.8-18c-0.8-3.8-3.5-5.9-7.3-6.2 c-0.8-0.1-1.7-0.1-2.5,0c-3.6,0.3-7.1,1.2-10.7,1.7c-0.9,0.1-1.2,0.4-1.1,1.3C140.2,192.7,140.1,196.4,140.1,200z M325,167.5 c0,3.7,0,7.4,0,11.1c0,0.9,0.3,1,1.1,0.9c2.7-0.5,5.4-1,8.1-1.4c8.8-1.6,13.5-7.4,12.8-16.2c-0.2-3.2-1.4-5.9-4.5-7.4 c-1.5-0.7-3.1-1-4.7-0.9c-4.1,0.2-8,1.3-12.1,1.8c-0.7,0.1-0.6,0.6-0.6,1.1C325,160.1,325,163.8,325,167.5z" />
  <path class="st6" d="M325,268.2c0,8.6,0.2,17.2,0,25.9c-0.4,13.6-4.4,25.9-14.1,35.9c-6.1,6.3-13.5,10.7-21.7,13.5 c-9.1,3.1-18.4,4.7-28,4c-11.2-0.9-20.4-5.2-26.2-15.3c-3.2-5.5-4.5-11.6-5.1-17.8c-0.3-3.2-0.3-6.5-0.3-9.7c0-15.6,0-31.2,0-46.7 c0-1,0.2-1.3,1.2-1.5c9.7-1.7,19.3-3.4,29-5.1c1.1-0.2,1.2,0.2,1.2,1.1c0,16.1,0,32.2,0,48.4c0,3.2,0.3,6.5,1.3,9.6 c1.7,5.4,5.2,8,10.8,8.1c3.9,0,7.6-0.8,11.1-2.6c5.4-2.8,7.9-7.6,9-13.4c0.5-2.5,0.7-5.1,0.6-7.7c0-16,0-32.1,0-48.1 c0-1.1,0.3-1.4,1.3-1.6c9.6-1.7,19.2-3.4,28.9-5.1c1-0.2,1.3,0,1.3,1.1C325,250.2,325,259.2,325,268.2 C325,268.2,325,268.2,325,268.2z" />
  <path class="st7" d="M333.3,286.6c0-15.6,0-31.2,0-46.9c0-1.1,0.2-1.6,1.4-1.8c14.4-2.5,28.7-5.1,43.1-7.5 c7.2-1.2,14.4-1.2,21.5,1.3c9.4,3.3,15,10.1,16.7,19.9c3.6,20.8-7.5,40.1-27.6,48.2c-5.4,2.2-11,3.3-16.6,4.3c-2,0.3-4,0.7-6,1 c-0.8,0.1-1,0.5-1,1.3c0,7.3,0,14.7,0,22c0,1-0.3,1.3-1.3,1.5c-9.6,1.6-19.3,3.3-28.9,5.1c-1.1,0.2-1.3,0-1.3-1.1 C333.3,318,333.3,302.3,333.3,286.6z M364.7,268.9c0,3.7,0,7.4,0,11.1c0,0.7,0.1,1,0.9,0.8c3-0.6,6-1,9-1.6 c8.2-1.7,12.7-7.4,12.1-15.4c-0.4-6.2-3.8-9.1-10-8.8c-3.7,0.2-7.4,1.2-11.1,1.7c-0.8,0.1-1,0.5-1,1.2 C364.7,261.5,364.7,265.2,364.7,268.9z" />
  <path class="st1" d="M262.5,190.9c0.2,11.8-8.3,24.4-24.3,25.5c-9.3,0.6-16.6-5.3-17.5-14.6c-1-10,2.3-18.3,10.4-24.4 c5.1-3.9,11.2-5.3,17.6-4.6c7.1,0.8,12.6,6.6,13.6,14.1C262.4,188.3,262.6,189.6,262.5,190.9z" />
  <path class="st1" d="M140.1,200c0-3.7,0-7.3,0-11c0-0.9,0.2-1.2,1.1-1.3c3.6-0.5,7.1-1.4,10.7-1.7c0.8-0.1,1.7,0,2.5,0 c3.8,0.3,6.5,2.5,7.3,6.2c1.8,8-1.6,15.9-11.8,18c-2.8,0.6-5.7,0.9-8.5,1.6c-1.3,0.3-1.5-0.1-1.4-1.3 C140.2,207,140.1,203.5,140.1,200z" />
  <path class="st3" d="M325,167.5c0-3.7,0-7.3,0-11c0-0.5-0.1-1,0.6-1.1c4-0.6,8-1.7,12.1-1.8c1.6-0.1,3.2,0.2,4.7,0.9 c3.1,1.5,4.3,4.2,4.5,7.4c0.7,8.8-3.9,14.6-12.8,16.2c-2.7,0.5-5.4,0.9-8.1,1.4c-0.8,0.2-1.1,0-1.1-0.9 C325.1,174.9,325,171.2,325,167.5z" />
  <path class="st1" d="M364.7,268.9c0-3.7,0-7.3,0-11c0-0.7,0.1-1.1,1-1.2c3.7-0.5,7.3-1.5,11.1-1.7c6.2-0.3,9.6,2.6,10,8.8 c0.5,8-4,13.8-12.1,15.4c-3,0.6-6,1-9,1.6c-0.9,0.2-0.9-0.1-0.9-0.8C364.7,276.3,364.7,272.6,364.7,268.9z M375.5,268.8 c0,0.2,0,0.5,0,0.7c0,0.3-0.2,0.7,0.2,0.9c0.3,0.1,0.6-0.2,0.8-0.4c0.8-0.6,1-1.6,1.1-2.5c0-0.5-0.1-0.7-0.7-0.7 C375.7,266.8,375.5,267,375.5,268.8z" />
  <path class="st5" d="M375.5,268.8c0-1.8,0.1-1.9,1.5-2c0.6,0,0.7,0.2,0.7,0.7c-0.1,1-0.3,1.9-1.1,2.5c-0.3,0.2-0.5,0.6-0.8,0.4 c-0.4-0.2-0.2-0.6-0.2-0.9C375.5,269.3,375.5,269,375.5,268.8z" />
</svg>
