<?xml version="1.0"?>
<svg xmlns="http://www.w3.org/2000/svg" width="164px" height="57px" viewBox="160 268 164 57">
  <path d="m0 323v337h660v-337c-13.32 0-28.12-2.05-37.94-12.04-4.33-4.4-8.1-11.83-4.88-17.94 4.35-8.27 9.63-0.95 9.82 4.98 9.42-2.68 8.26-13.64 2.53-19.7-6.71-7.1-17.15-9.22-26.53-7.87-25.26 3.63-39.25 23.99-59 37.35-15.99 10.82-36.93 15.44-56 15.22-12.16-0.15-47.69-12.94-35.26-30.94 5.37-7.77 9.19 1.59 8.26 6.94 9.64-3.29 10.06-13.8 3.53-20.7-6.43-6.8-16.47-9.13-25.53-8.01-25.24 3.1-39.64 23.15-59 36.8-15.4 10.85-36.32 16.13-55 15.91-13.67-0.17-43.78-8.71-38.57-28 2.67-9.85 10.32-4.63 10.57 3 9.42-2.68 8.26-13.64 2.53-19.7-6.71-7.1-17.15-9.22-26.53-7.87-25.26 3.63-39.25 23.99-59 37.35-15.99 10.82-36.93 15.44-56 15.22-12.16-0.15-47.69-12.94-35.26-30.94 5.37-7.77 9.19 1.59 8.26 6.94 10.9-3.72 9.47-15.72 1.83-22.32-8.22-7.09-19.7-7.73-29.83-5.34-22.156 5.21-35.345 23.3-53 35.75-14.044 9.9-32.947 15.18-50 15.91z" fill="none" stroke="black" stroke-width="4px" />
</svg>
